<svg xmlns="http://www.w3.org/2000/svg" height="450" width="700" viewBox="0 0 700 450" id="svgwrapper_svg" oncontextmenu="return false;" preserveAspectRatio="xMinYMin meet"><style>        g#assistantgroup rect.outer {fill: none;stroke: #1abc9c;stroke-dasharray: 2,4;stroke-width: 1px;}        rect.selection {stroke: gray;stroke-dasharray: 4px;stroke-opacity: 0.5; fill: transparent;}        svg *::selection {background : transparent;}</style><defs g_shapeid="75" id="svg_defs"><marker id="end-arrow" viewBox="0 -5 10 10" refX="6" markerWidth="10" markerHeight="10" orient="auto"><path d="M5,5L10 0 5 -5z" fill="#999999"/></marker><filter width="2000" height="2000" x="0" y="0" id="rect-shadow-2000" filterUnits="userSpaceOnUse"><feGaussianBlur stdDeviation="2"/></filter><marker id="start-arrow" viewBox="0 -5 10 10" refX="4" markerWidth="10" markerHeight="10" orient="auto"><path d="M5,5L10 0 5 -5z" fill="#000"/></marker></defs><path d="M 422.734375 196 L 1007.375 411" style="fill: none; stroke: rgb(153, 153, 153); stroke-width: 1px; display: none;"/><g transform="translate(0,0)" id="bottomgroup"><g transform="translate(19.6875,117)" id="GrayRectGroup2" type="shape" style="cursor: move;"><rect overflow="visible" width="658" height="119" fill="#eaebec"/><g transform="translate(10 10)" class="content"><text transform="translate(0 14)" style="font-size: 14px;fill: #444;font-family: PingFang-SC-Medium, PingFang SC, MicrosoftYaHei, Microsoft YaHei">计算层</text></g></g><g transform="translate(19.6875,288)" id="GrayRectGroup45" type="shape" style="cursor: auto;"><rect overflow="visible" width="658" height="132" fill="#eaebec"/><g transform="translate(10 10)" class="content"><text transform="translate(0 14)" style="font-size: 14px;fill: #444;font-family: PingFang-SC-Medium, PingFang SC, MicrosoftYaHei, Microsoft YaHei">存储层</text></g></g></g><g transform="translate(0,0)" id="middlegroup"><g transform="translate(0,0)" id="Link67" type="link" startshape="RectEndPoint60" startedge="SM" endshape="RectEndPoint4" endedge="NM"><path d="M 349.5 204.5 L 349.5 264.5 L 105.5 264.5 L 105.5 323.5" style="stroke: rgb(136, 136, 136); stroke-width: 1px; fill: none;"/><g transform="translate(0, 0.5)"><polygon points="101 318.5 105.5 324.5 110 318.5 101 318.5" style="fill: rgb(136, 136, 136); fill-rule: evenodd;" class="endarrow"/></g><path d="M 349.5 204.5 L 349.5 264.5" style="stroke-width: 15px;stroke:red;fill:none;stroke-opacity:0" class="outer" index="0"/><path d="M 349.5 264.5 L 105.5 264.5" style="stroke-width: 15px;stroke:red;fill:none;stroke-opacity:0" class="outer" index="1"/><path d="M 105.5 264.5 L 105.5 323.5" style="stroke-width: 15px; stroke: red; fill: none; stroke-opacity: 0; cursor: ew-resize;" class="outer" index="2"/></g><g transform="translate(0,0)" id="Link72" type="link" startshape="RectEndPoint1" startedge="SM" endshape="RectEndPoint60" endedge="WM"><path d="M 239.5 62.5 L 239.5 179.5 L 298.5 179.5" style="stroke: #888888;stroke-width: 1px;fill:none;"/><g transform="translate(0.5, 0)"><polygon points="293.5 184 299.5 179.5 293.5 175 293.5 184" style="fill:#888888;fill-rule: evenodd" class="endarrow"/></g><path d="M 239.5 62.5 L 239.5 179.5" style="stroke-width: 15px;stroke:red;fill:none;stroke-opacity:0" class="outer" index="0"/><path d="M 239.5 179.5 L 298.5 179.5" style="stroke-width: 15px;stroke:red;fill:none;stroke-opacity:0" class="outer" index="1"/></g><g transform="translate(0,0)" id="Link70" type="link" startshape="RectEndPoint60" startedge="SM" endshape="RectEndPoint62" endedge="NM"><path d="M 349.5 204.5 L 349.5 264.5 L 469.5 264.5 L 469.5 323.5" style="stroke: rgb(136, 136, 136); stroke-width: 1px; fill: none;"/><g transform="translate(0, 0.5)"><polygon points="465 318.5 469.5 324.5 474 318.5 465 318.5" style="fill: rgb(136, 136, 136); fill-rule: evenodd;" class="endarrow"/></g><path d="M 349.5 204.5 L 349.5 264.5" style="stroke-width: 15px;stroke:red;fill:none;stroke-opacity:0" class="outer" index="0"/><path d="M 349.5 264.5 L 469.5 264.5" style="stroke-width: 15px;stroke:red;fill:none;stroke-opacity:0" class="outer" index="1"/><path d="M 469.5 264.5 L 469.5 323.5" style="stroke-width: 15px; stroke: red; fill: none; stroke-opacity: 0; cursor: ew-resize;" class="outer" index="2"/></g><g transform="translate(0,0)" id="Link69" type="link" startshape="RectEndPoint60" startedge="SM" endshape="RectEndPoint63" endedge="NM"><path d="M 349.5 204.5 L 349.5 264.5 L 348.5 264.5 L 348.5 323.5" style="stroke: #888888;stroke-width: 1px;fill:none;"/><g transform="translate(0, 0.5)"><polygon points="344 318.5 348.5 324.5 353 318.5 344 318.5" style="fill:#888888;fill-rule: evenodd" class="endarrow"/></g><path d="M 349.5 204.5 L 349.5 264.5" style="stroke-width: 15px;stroke:red;fill:none;stroke-opacity:0" class="outer" index="0"/><path d="M 349.5 264.5 L 348.5 264.5" style="stroke-width: 15px;stroke:red;fill:none;stroke-opacity:0" class="outer" index="1"/><path d="M 348.5 264.5 L 348.5 323.5" style="stroke-width: 15px;stroke:red;fill:none;stroke-opacity:0" class="outer" index="2"/></g><g transform="translate(0,0)" id="Link68" type="link" startshape="RectEndPoint60" startedge="SM" endshape="RectEndPoint64" endedge="NM"><path d="M 349.5 204.5 L 349.5 264.5 L 226.5 264.5 L 226.5 323.5" style="stroke: rgb(136, 136, 136); stroke-width: 1px; fill: none;"/><g transform="translate(0, 0.5)"><polygon points="222 318.5 226.5 324.5 231 318.5 222 318.5" style="fill: rgb(136, 136, 136); fill-rule: evenodd;" class="endarrow"/></g><path d="M 349.5 204.5 L 349.5 264.5" style="stroke-width: 15px;stroke:red;fill:none;stroke-opacity:0" class="outer" index="0"/><path d="M 349.5 264.5 L 226.5 264.5" style="stroke-width: 15px; stroke: red; fill: none; stroke-opacity: 0; cursor: ns-resize;" class="outer" index="1"/><path d="M 226.5 264.5 L 226.5 323.5" style="stroke-width: 15px; stroke: red; fill: none; stroke-opacity: 0; cursor: ew-resize;" class="outer" index="2"/></g><g transform="translate(0,0)" id="Link71" type="link" startshape="RectEndPoint60" startedge="SM" endshape="RectEndPoint65" endedge="NM"><path d="M 349.5 204.5 L 349.5 264.5 L 592.5 264.5 L 592.5 323.5" style="stroke: rgb(136, 136, 136); stroke-width: 1px; fill: none;"/><g transform="translate(0, 0.5)"><polygon points="588 318.5 592.5 324.5 597 318.5 588 318.5" style="fill: rgb(136, 136, 136); fill-rule: evenodd;" class="endarrow"/></g><path d="M 349.5 204.5 L 349.5 264.5" style="stroke-width: 15px; stroke: red; fill: none; stroke-opacity: 0; cursor: ew-resize;" class="outer" index="0"/><path d="M 349.5 264.5 L 592.5 264.5" style="stroke-width: 15px;stroke:red;fill:none;stroke-opacity:0" class="outer" index="1"/><path d="M 592.5 264.5 L 592.5 323.5" style="stroke-width: 15px;stroke:red;fill:none;stroke-opacity:0" class="outer" index="2"/></g><g transform="translate(0,0)" id="Link73" type="link" startshape="RectEndPoint60" startedge="EM" endshape="RectEndPoint66" endedge="SM"><path d="M 395.5 179.5 L 450.5 179.5 L 450.5 67.5" style="stroke: rgb(136, 136, 136); stroke-width: 1px; fill: none;"/><g transform="translate(0, -0.5)"><polygon points="455 72.5 450.5 66.5 446 72.5 455 72.5" style="fill: rgb(136, 136, 136); fill-rule: evenodd;" class="endarrow"/></g><path d="M 395.5 179.5 L 450.5 179.5" style="stroke-width: 15px;stroke:red;fill:none;stroke-opacity:0" class="outer" index="0"/><path d="M 450.5 179.5 L 450.5 67.5" style="stroke-width: 15px; stroke: red; fill: none; stroke-opacity: 0; cursor: ew-resize;" class="outer" index="1"/></g></g><g transform="translate(0,0)" id="maingroup"><g transform="translate(126.2109375,155)" id="RectEndPoint31" type="shape" style="cursor: move;"><rect transform="translate(-3 -3)" x="3" y="4" width="88.96875" height="50" style="fill: rgba(0,0,0,0.3)" filter="url(&quot;#rect-shadow-2000&quot;)"/><rect width="88.96875" height="50" style="fill: #fff; stroke-width:0;shape-rendering: crispEdges; stroke:#e5e5e5"/><g transform="translate(20 9)" class="content"><g style="fill:#00a4ff;" class="logo"/><text transform="translate(0 21)" style="isolation: isolate;font-size: 14px;fill: #444;font-family: PingFang-SC-Medium, PingFang SC, MicrosoftYaHei, Microsoft YaHei">Broker1</text></g></g><g transform="translate(303.375,155)" id="RectEndPoint60" type="shape" style="cursor: move;"><rect transform="translate(-3 -3)" x="3" y="4" width="92.359375" height="50" style="fill: rgba(0,0,0,0.3)" filter="url(&quot;#rect-shadow-2000&quot;)"/><rect width="92.359375" height="50" style="fill: #fff; stroke-width:0;shape-rendering: crispEdges; stroke:#e5e5e5"/><g transform="translate(20 9)" class="content"><g style="fill:#00a4ff;" class="logo"/><text transform="translate(0 21)" style="isolation: isolate;font-size: 14px;fill: #444;font-family: PingFang-SC-Medium, PingFang SC, MicrosoftYaHei, Microsoft YaHei">Broker2</text></g></g><g transform="translate(483.1484375,155)" id="RectEndPoint61" type="shape" style="cursor: move;"><rect transform="translate(-3 -3)" x="3" y="4" width="92.359375" height="50" style="fill: rgba(0,0,0,0.3)" filter="url(&quot;#rect-shadow-2000&quot;)"/><rect width="92.359375" height="50" style="fill: #fff; stroke-width:0;shape-rendering: crispEdges; stroke:#e5e5e5"/><g transform="translate(20 9)" class="content"><g style="fill:#00a4ff;" class="logo"/><text transform="translate(0 21)" style="isolation: isolate;font-size: 14px;fill: #444;font-family: PingFang-SC-Medium, PingFang SC, MicrosoftYaHei, Microsoft YaHei">Broker3</text></g></g><g transform="translate(59.640625,329)" id="RectEndPoint4" type="shape" style="cursor: move;"><rect transform="translate(-3 -3)" x="3" y="4" width="91.40625" height="50" style="fill: rgba(0,0,0,0.3)" filter="url(&quot;#rect-shadow-2000&quot;)"/><rect width="91.40625" height="50" style="fill: #fff; stroke-width:0;shape-rendering: crispEdges; stroke:#e5e5e5"/><g transform="translate(20 9)" class="content"><g style="fill:#00a4ff;" class="logo"/><text transform="translate(0 21)" style="isolation: isolate;font-size: 14px;fill: #444;font-family: PingFang-SC-Medium, PingFang SC, MicrosoftYaHei, Microsoft YaHei">Bookie1</text></g></g><g transform="translate(179.640625,329)" id="RectEndPoint64" type="shape" style="cursor: move;"><rect transform="translate(-3 -3)" x="3" y="4" width="94.09375" height="50" style="fill: rgba(0,0,0,0.3)" filter="url(&quot;#rect-shadow-2000&quot;)"/><rect width="94.09375" height="50" style="fill: #fff; stroke-width:0;shape-rendering: crispEdges; stroke:#e5e5e5"/><g transform="translate(20 9)" class="content"><g style="fill:#00a4ff;" class="logo"/><text transform="translate(0 21)" style="isolation: isolate;font-size: 14px;fill: #444;font-family: PingFang-SC-Medium, PingFang SC, MicrosoftYaHei, Microsoft YaHei">Bookie2</text></g></g><g transform="translate(301.640625,329)" id="RectEndPoint63" type="shape" style="cursor: move;"><rect transform="translate(-3 -3)" x="3" y="4" width="94.09375" height="50" style="fill: rgba(0,0,0,0.3)" filter="url(&quot;#rect-shadow-2000&quot;)"/><rect width="94.09375" height="50" style="fill: #fff; stroke-width:0;shape-rendering: crispEdges; stroke:#e5e5e5"/><g transform="translate(20 9)" class="content"><g style="fill:#00a4ff;" class="logo"/><text transform="translate(0 21)" style="isolation: isolate;font-size: 14px;fill: #444;font-family: PingFang-SC-Medium, PingFang SC, MicrosoftYaHei, Microsoft YaHei">Bookie3</text></g></g><g transform="translate(422.25,329)" id="RectEndPoint62" type="shape" style="cursor: move;"><rect transform="translate(-3 -3)" x="3" y="4" width="94.09375" height="50" style="fill: rgba(0,0,0,0.3)" filter="url(&quot;#rect-shadow-2000&quot;)"/><rect width="94.09375" height="50" style="fill: #fff; stroke-width:0;shape-rendering: crispEdges; stroke:#e5e5e5"/><g transform="translate(20 9)" class="content"><g style="fill:#00a4ff;" class="logo"/><text transform="translate(0 21)" style="isolation: isolate;font-size: 14px;fill: #444;font-family: PingFang-SC-Medium, PingFang SC, MicrosoftYaHei, Microsoft YaHei">Bookie4</text></g></g><g transform="translate(545.1171875,329)" id="RectEndPoint65" type="shape" style="cursor: move;"><rect transform="translate(-3 -3)" x="3" y="4" width="94.09375" height="50" style="fill: rgba(0,0,0,0.3)" filter="url(&quot;#rect-shadow-2000&quot;)"/><rect width="94.09375" height="50" style="fill: #fff; stroke-width:0;shape-rendering: crispEdges; stroke:#e5e5e5"/><g transform="translate(20 9)" class="content"><g style="fill:#00a4ff;" class="logo"/><text transform="translate(0 21)" style="isolation: isolate;font-size: 14px;fill: #444;font-family: PingFang-SC-Medium, PingFang SC, MicrosoftYaHei, Microsoft YaHei">Bookie5</text></g></g><g transform="translate(189.2890625,14)" id="RectEndPoint1" type="shape" style="cursor: move;"><rect transform="translate(-3 -3)" x="3" y="4" width="100.015625" height="49" style="fill: rgba(0,0,0,0.3)" filter="url(&quot;#rect-shadow-2000&quot;)"/><rect width="100.015625" height="49" style="fill: #fff; stroke-width:0;shape-rendering: crispEdges; stroke:#e5e5e5"/><g transform="translate(20 9)" class="content"><g style="fill:#00a4ff;" class="logo"/><text transform="translate(0 21)" style="isolation: isolate;font-size: 14px;fill: #444;font-family: PingFang-SC-Medium, PingFang SC, MicrosoftYaHei, Microsoft YaHei">Producer</text></g></g><g transform="translate(395.734375,14)" id="RectEndPoint66" type="shape" style="cursor: move;"><rect transform="translate(-3 -3)" x="3" y="4" width="107.40625" height="49" style="fill: rgba(0,0,0,0.3)" filter="url(&quot;#rect-shadow-2000&quot;)"/><rect width="107.40625" height="49" style="fill: #fff; stroke-width:0;shape-rendering: crispEdges; stroke:#e5e5e5"/><g transform="translate(20 9)" class="content"><g style="fill:#00a4ff;" class="logo"/><text transform="translate(0 21)" style="isolation: isolate;font-size: 14px;fill: #444;font-family: PingFang-SC-Medium, PingFang SC, MicrosoftYaHei, Microsoft YaHei">Consumer</text></g></g></g><g transform="translate(0,0)" id="textgroup"><g transform="translate(284,393)" id="Textbasic75" type="shape"><rect overflow="visible" opacity="0.5" width="116" height="20" fill="#CEE3FF" style="opacity:0"/><g transform="translate(0 0)" class="content"><text transform="translate(0 14)" fill="#878787" style="font-size: 12px;font-family: PingFang-SC-Medium, PingFang SC, MicrosoftYaHei, Microsoft YaHei">Apache BookKeeper</text></g></g></g><g transform="translate(0,0)" id="assistantgroup"/></svg>