<svg xmlns="http://www.w3.org/2000/svg" height="700" width="800" viewBox="0 0 800 700" id="svgwrapper_svg" oncontextmenu="return false;" preserveAspectRatio="xMinYMin meet"><style>        g#assistantgroup rect.outer {fill: none;stroke: #1abc9c;stroke-dasharray: 2,4;stroke-width: 1px;}        rect.selection {stroke: gray;stroke-dasharray: 4px;stroke-opacity: 0.5; fill: transparent;}        svg *::selection {background : transparent;}</style><defs g_shapeid="68" id="svg_defs"><marker id="end-arrow" viewBox="0 -5 10 10" refX="6" markerWidth="10" markerHeight="10" orient="auto"><path d="M5,5L10 0 5 -5z" fill="#999999"/></marker><filter width="2000" height="2000" x="0" y="0" id="rect-shadow-2000" filterUnits="userSpaceOnUse"><feGaussianBlur stdDeviation="2"/></filter><marker id="start-arrow" viewBox="0 -5 10 10" refX="4" markerWidth="10" markerHeight="10" orient="auto"><path d="M5,5L10 0 5 -5z" fill="#000"/></marker></defs><path d="M 287.765625 605 L 283 615" style="fill: none; stroke: rgb(153, 153, 153); stroke-width: 1px; display: none;"/><g transform="translate(0,0)" id="bottomgroup"><g transform="translate(31.90625,398.5)" id="GrayRectGroup26" type="shape" style="cursor: auto;"><rect overflow="visible" width="138" height="280" fill="#eaebec"/><g transform="translate(10 10)" class="content"><text transform="translate(0 14)" style="font-size: 14px;fill: #444;font-family: PingFang-SC-Medium, PingFang SC, MicrosoftYaHei, Microsoft YaHei">Bookie1</text></g></g><g transform="translate(71.25,108)" id="GrayRectGroup50" type="shape" style="cursor: move;"><rect overflow="visible" width="155" height="121" fill="#eaebec"/><g transform="translate(10 10)" class="content"><text transform="translate(0 14)" style="font-size: 14px;fill: #444;font-family: PingFang-SC-Medium, PingFang SC, MicrosoftYaHei, Microsoft YaHei">Broker1</text></g></g><g transform="translate(523.59375,108)" id="GrayRectGroup54" type="shape" style="cursor: auto;"><rect overflow="visible" width="155" height="121" fill="#eaebec"/><g transform="translate(10 10)" class="content"><text transform="translate(0 14)" style="font-size: 14px;fill: #444;font-family: PingFang-SC-Medium, PingFang SC, MicrosoftYaHei, Microsoft YaHei">Broker3</text></g></g><g transform="translate(616.109375,398.5)" id="GrayRectGroup39" type="shape" style="cursor: auto;"><rect overflow="visible" width="138" height="280" fill="#eaebec"/><g transform="translate(10 10)" class="content"><text transform="translate(0 14)" style="font-size: 14px;fill: #444;font-family: PingFang-SC-Medium, PingFang SC, MicrosoftYaHei, Microsoft YaHei">Bookie4</text></g></g><g transform="translate(417.609375,398.5)" id="GrayRectGroup34" type="shape"><rect overflow="visible" width="138" height="280" fill="#eaebec"/><g transform="translate(10 10)" class="content"><text transform="translate(0 14)" style="font-size: 14px;fill: #444;font-family: PingFang-SC-Medium, PingFang SC, MicrosoftYaHei, Microsoft YaHei">Bookie3</text></g></g><g transform="translate(219.421875,398.5)" id="GrayRectGroup30" type="shape"><rect overflow="visible" width="138" height="280" fill="#eaebec"/><g transform="translate(10 10)" class="content"><text transform="translate(0 14)" style="font-size: 14px;fill: #444;font-family: PingFang-SC-Medium, PingFang SC, MicrosoftYaHei, Microsoft YaHei">Bookie2</text></g></g><g transform="translate(305.25,108)" id="GrayRectGroup52" type="shape"><rect overflow="visible" width="155" height="121" fill="#eaebec"/><g transform="translate(10 10)" class="content"><text transform="translate(0 14)" style="font-size: 14px;fill: #444;font-family: PingFang-SC-Medium, PingFang SC, MicrosoftYaHei, Microsoft YaHei">Broker2</text></g></g></g><g transform="translate(0,0)" id="middlegroup"><g transform="translate(0,0)" id="Link56" type="link" startshape="RectEndPoint53" startedge="SM" endshape="RectEndPoint42" endedge="NM"><path d="M 382.5 198.5 L 382.5 244.5 L 183.5 244.5 L 183.5 290.5" style="stroke: #888888;stroke-width: 1px;fill:none;"/><g transform="translate(0, 0.5)"><polygon points="179 285.5 183.5 291.5 188 285.5 179 285.5" style="fill:#888888;fill-rule: evenodd" class="endarrow"/></g><path d="M 382.5 198.5 L 382.5 244.5" style="stroke-width: 15px;stroke:red;fill:none;stroke-opacity:0" class="outer" index="0"/><path d="M 382.5 244.5 L 183.5 244.5" style="stroke-width: 15px;stroke:red;fill:none;stroke-opacity:0" class="outer" index="1"/><path d="M 183.5 244.5 L 183.5 290.5" style="stroke-width: 15px;stroke:red;fill:none;stroke-opacity:0" class="outer" index="2"/></g><g transform="translate(0,0)" id="Link57" type="link" startshape="RectEndPoint53" startedge="SM" endshape="RectEndPoint43" endedge="NM"><path d="M 382.5 198.5 L 382.5 244.5 L 310.5 244.5 L 310.5 290.5" style="stroke: rgb(136, 136, 136); stroke-width: 1px; fill: none;"/><g transform="translate(0, 0.5)"><polygon points="306 285.5 310.5 291.5 315 285.5 306 285.5" style="fill: rgb(136, 136, 136); fill-rule: evenodd;" class="endarrow"/></g><path d="M 382.5 198.5 L 382.5 244.5" style="stroke-width: 15px;stroke:red;fill:none;stroke-opacity:0" class="outer" index="0"/><path d="M 382.5 244.5 L 310.5 244.5" style="stroke-width: 15px; stroke: red; fill: none; stroke-opacity: 0; cursor: ns-resize;" class="outer" index="1"/><path d="M 310.5 244.5 L 310.5 290.5" style="stroke-width: 15px; stroke: red; fill: none; stroke-opacity: 0; cursor: ew-resize;" class="outer" index="2"/></g><g transform="translate(0,0)" id="Link58" type="link" startshape="RectEndPoint53" startedge="SM" endshape="RectEndPoint44" endedge="NM"><path d="M 382.5 198.5 L 382.5 244.5 L 439.5 244.5 L 439.5 290.5" style="stroke: rgb(136, 136, 136); stroke-width: 1px; fill: none;"/><g transform="translate(0, 0.5)"><polygon points="435 285.5 439.5 291.5 444 285.5 435 285.5" style="fill: rgb(136, 136, 136); fill-rule: evenodd;" class="endarrow"/></g><path d="M 382.5 198.5 L 382.5 244.5" style="stroke-width: 15px;stroke:red;fill:none;stroke-opacity:0" class="outer" index="0"/><path d="M 382.5 244.5 L 439.5 244.5" style="stroke-width: 15px;stroke:red;fill:none;stroke-opacity:0" class="outer" index="1"/><path d="M 439.5 244.5 L 439.5 290.5" style="stroke-width: 15px; stroke: red; fill: none; stroke-opacity: 0; cursor: ew-resize;" class="outer" index="2"/></g><g transform="translate(0,0)" id="Link60" type="link" startshape="RectEndPoint1" startedge="SM" endshape="GrayRectGroup52" endedge="WM"><path d="M 260.5 68.5 L 260.5 168.5 L 300.5 168.5" style="stroke: #888888;stroke-width: 1px;fill:none;"/><g transform="translate(0.5, 0)"><polygon points="295.5 173 301.5 168.5 295.5 164 295.5 173" style="fill:#888888;fill-rule: evenodd" class="endarrow"/></g><path d="M 260.5 68.5 L 260.5 168.5" style="stroke-width: 15px;stroke:red;fill:none;stroke-opacity:0" class="outer" index="0"/><path d="M 260.5 168.5 L 300.5 168.5" style="stroke-width: 15px;stroke:red;fill:none;stroke-opacity:0" class="outer" index="1"/></g><g transform="translate(0,0)" id="Link61" type="link" startshape="GrayRectGroup52" startedge="EM" endshape="RectEndPoint2" endedge="SM"><path d="M 460.5 168.5 L 508.5 168.5 L 508.5 71.5" style="stroke: rgb(136, 136, 136); stroke-width: 1px; fill: none;"/><g transform="translate(0, -0.5)"><polygon points="513 76.5 508.5 70.5 504 76.5 513 76.5" style="fill: rgb(136, 136, 136); fill-rule: evenodd;" class="endarrow"/></g><path d="M 460.5 168.5 L 508.5 168.5" style="stroke-width: 15px;stroke:red;fill:none;stroke-opacity:0" class="outer" index="0"/><path d="M 508.5 168.5 L 508.5 71.5" style="stroke-width: 15px; stroke: red; fill: none; stroke-opacity: 0; cursor: ew-resize;" class="outer" index="1"/></g><g transform="translate(0,0)" id="Link59" type="link" startshape="RectEndPoint53" startedge="SM" endshape="RectEndPoint45" endedge="NM"><path d="M 382.5 198.5 L 382.5 244.5 L 577.5 244.5 L 577.5 290.5" style="stroke: #888888;stroke-width: 1px;fill:none;"/><g transform="translate(0, 0.5)"><polygon points="573 285.5 577.5 291.5 582 285.5 573 285.5" style="fill:#888888;fill-rule: evenodd" class="endarrow"/></g><path d="M 382.5 198.5 L 382.5 244.5" style="stroke-width: 15px;stroke:red;fill:none;stroke-opacity:0" class="outer" index="0"/><path d="M 382.5 244.5 L 577.5 244.5" style="stroke-width: 15px;stroke:red;fill:none;stroke-opacity:0" class="outer" index="1"/><path d="M 577.5 244.5 L 577.5 290.5" style="stroke-width: 15px;stroke:red;fill:none;stroke-opacity:0" class="outer" index="2"/></g></g><g transform="translate(0,0)" id="maingroup"><g transform="translate(210.8515625,19)" id="RectEndPoint1" type="shape" style="cursor: move;"><rect transform="translate(-3 -3)" x="3" y="4" width="100.0625" height="50" style="fill: rgba(0,0,0,0.3)" filter="url(&quot;#rect-shadow-2000&quot;)"/><rect width="100.0625" height="50" style="fill: #fff; stroke-width:0;shape-rendering: crispEdges; stroke:#e5e5e5"/><g transform="translate(20 9)" class="content"><g style="fill:#00a4ff;" class="logo"/><text transform="translate(0 21)" style="isolation: isolate;font-size: 14px;fill: #444;font-family: PingFang-SC-Medium, PingFang SC, MicrosoftYaHei, Microsoft YaHei">Producer</text></g></g><g transform="translate(454.59375,19)" id="RectEndPoint2" type="shape" style="cursor: move;"><rect transform="translate(-3 -3)" x="3" y="4" width="107.40625" height="50" style="fill: rgba(0,0,0,0.3)" filter="url(&quot;#rect-shadow-2000&quot;)"/><rect width="107.40625" height="50" style="fill: #fff; stroke-width:0;shape-rendering: crispEdges; stroke:#e5e5e5"/><g transform="translate(20 9)" class="content"><g style="fill:#00a4ff;" class="logo"/><text transform="translate(0 21)" style="isolation: isolate;font-size: 14px;fill: #444;font-family: PingFang-SC-Medium, PingFang SC, MicrosoftYaHei, Microsoft YaHei">Consumer</text></g></g><g transform="translate(54.078125,442)" id="RectEndPoint9" type="shape" style="cursor: move;"><rect transform="translate(-3 -3)" x="3" y="4" width="93.34375" height="48" style="fill: rgba(0,0,0,0.3)" filter="url(&quot;#rect-shadow-2000&quot;)"/><rect width="93.34375" height="48" style="fill: #fff; stroke-width:0;shape-rendering: crispEdges; stroke:#e5e5e5"/><g transform="translate(14.5,10.6953125)" class="content"><g style="fill:#00a4ff;" class="logo"/><text transform="translate(0 21)" style="isolation: isolate;font-size: 14px;fill: #444;font-family: PingFang-SC-Medium, PingFang SC, MicrosoftYaHei, Microsoft YaHei">Segment1</text></g></g><g transform="translate(51.59375,600)" id="RectEndPoint27" type="shape" style="cursor: move;"><rect transform="translate(-3 -3)" x="3" y="4" width="95.828125" height="48" style="fill: rgba(0,0,0,0.3)" filter="url(&quot;#rect-shadow-2000&quot;)"/><rect width="95.828125" height="48" style="fill: #fff; stroke-width:0;shape-rendering: crispEdges; stroke:#e5e5e5"/><g transform="translate(13.5,10.6953125)" class="content"><g style="fill:#00a4ff;" class="logo"/><text transform="translate(0 21)" style="isolation: isolate;font-size: 14px;fill: #444;font-family: PingFang-SC-Medium, PingFang SC, MicrosoftYaHei, Microsoft YaHei">SegmentN</text></g></g><g transform="translate(54.390625,514)" id="RectEndPoint28" type="shape" style="cursor: move;"><rect transform="translate(-3 -3)" x="3" y="4" width="93.03125" height="49" style="fill: rgba(0,0,0,0.3)" filter="url(&quot;#rect-shadow-2000&quot;)"/><rect width="93.03125" height="49" style="fill: #fff; stroke-width:0;shape-rendering: crispEdges; stroke:#e5e5e5"/><g transform="translate(13,11.1953125)" class="content"><g style="fill:#00a4ff;" class="logo"/><text transform="translate(0 21)" style="isolation: isolate;font-size: 14px;fill: #444;font-family: PingFang-SC-Medium, PingFang SC, MicrosoftYaHei, Microsoft YaHei">Segment2</text></g></g><g transform="translate(241.90625,442)" id="RectEndPoint29" type="shape" style="cursor: auto;"><rect transform="translate(-3 -3)" x="3" y="4" width="94.03125" height="50" style="fill: rgba(0,0,0,0.3)" filter="url(&quot;#rect-shadow-2000&quot;)"/><rect width="94.03125" height="50" style="fill: #fff; stroke-width:0;shape-rendering: crispEdges; stroke:#e5e5e5"/><g transform="translate(13.5,11.6953125)" class="content"><g style="fill:#00a4ff;" class="logo"/><text transform="translate(0 21)" style="isolation: isolate;font-size: 14px;fill: #444;font-family: PingFang-SC-Medium, PingFang SC, MicrosoftYaHei, Microsoft YaHei">Segment2</text></g></g><g transform="translate(240.59375,605)" id="RectEndPoint31" type="shape" style="cursor: auto;"><rect transform="translate(-3 -3)" x="3" y="4" width="94.34375" height="45" style="fill: rgba(0,0,0,0.3)" filter="url(&quot;#rect-shadow-2000&quot;)"/><rect width="94.34375" height="45" style="fill: #fff; stroke-width:0;shape-rendering: crispEdges; stroke:#e5e5e5"/><g transform="translate(15,9.1953125)" class="content"><g style="fill:#00a4ff;" class="logo"/><text transform="translate(0 21)" style="isolation: isolate;font-size: 14px;fill: #444;font-family: PingFang-SC-Medium, PingFang SC, MicrosoftYaHei, Microsoft YaHei">Segment1</text></g></g><g transform="translate(239.90625,516)" id="RectEndPoint32" type="shape" style="cursor: auto;"><rect transform="translate(-3 -3)" x="3" y="4" width="95.03125" height="48" style="fill: rgba(0,0,0,0.3)" filter="url(&quot;#rect-shadow-2000&quot;)"/><rect width="95.03125" height="48" style="fill: #fff; stroke-width:0;shape-rendering: crispEdges; stroke:#e5e5e5"/><g transform="translate(14,10.6953125)" class="content"><g style="fill:#00a4ff;" class="logo"/><text transform="translate(0 21)" style="isolation: isolate;font-size: 14px;fill: #444;font-family: PingFang-SC-Medium, PingFang SC, MicrosoftYaHei, Microsoft YaHei">Segment3</text></g></g><g transform="translate(438.59375,444)" id="RectEndPoint33" type="shape" style="cursor: auto;"><rect transform="translate(-3 -3)" x="3" y="4" width="95.03125" height="48" style="fill: rgba(0,0,0,0.3)" filter="url(&quot;#rect-shadow-2000&quot;)"/><rect width="95.03125" height="48" style="fill: #fff; stroke-width:0;shape-rendering: crispEdges; stroke:#e5e5e5"/><g transform="translate(14,10.6953125)" class="content"><g style="fill:#00a4ff;" class="logo"/><text transform="translate(0 21)" style="isolation: isolate;font-size: 14px;fill: #444;font-family: PingFang-SC-Medium, PingFang SC, MicrosoftYaHei, Microsoft YaHei">Segment3</text></g></g><g transform="translate(438.6953125,604)" id="RectEndPoint35" type="shape" style="cursor: move;"><rect transform="translate(-3 -3)" x="3" y="4" width="93.828125" height="46" style="fill: rgba(0,0,0,0.3)" filter="url(&quot;#rect-shadow-2000&quot;)"/><rect width="93.828125" height="46" style="fill: #fff; stroke-width:0;shape-rendering: crispEdges; stroke:#e5e5e5"/><g transform="translate(12.5,9.6953125)" class="content"><g style="fill:#00a4ff;" class="logo"/><text transform="translate(0 21)" style="isolation: isolate;font-size: 14px;fill: #444;font-family: PingFang-SC-Medium, PingFang SC, MicrosoftYaHei, Microsoft YaHei">SegmentN</text></g></g><g transform="translate(439.59375,513)" id="RectEndPoint36" type="shape" style="cursor: move;"><rect transform="translate(-3 -3)" x="3" y="4" width="94.03125" height="51" style="fill: rgba(0,0,0,0.3)" filter="url(&quot;#rect-shadow-2000&quot;)"/><rect width="94.03125" height="51" style="fill: #fff; stroke-width:0;shape-rendering: crispEdges; stroke:#e5e5e5"/><g transform="translate(14.84375,12.1953125)" class="content"><g style="fill:#00a4ff;" class="logo"/><text transform="translate(0 21)" style="isolation: isolate;font-size: 14px;fill: #444;font-family: PingFang-SC-Medium, PingFang SC, MicrosoftYaHei, Microsoft YaHei">Segment1</text></g></g><g transform="translate(639.59375,442)" id="RectEndPoint38" type="shape" style="cursor: move;"><rect transform="translate(-3 -3)" x="3" y="4" width="94.03125" height="50" style="fill: rgba(0,0,0,0.3)" filter="url(&quot;#rect-shadow-2000&quot;)"/><rect width="94.03125" height="50" style="fill: #fff; stroke-width:0;shape-rendering: crispEdges; stroke:#e5e5e5"/><g transform="translate(13.5,11.6953125)" class="content"><g style="fill:#00a4ff;" class="logo"/><text transform="translate(0 21)" style="isolation: isolate;font-size: 14px;fill: #444;font-family: PingFang-SC-Medium, PingFang SC, MicrosoftYaHei, Microsoft YaHei">Segment2</text></g></g><g transform="translate(636.796875,602)" id="RectEndPoint40" type="shape" style="cursor: auto;"><rect transform="translate(-3 -3)" x="3" y="4" width="95.828125" height="48" style="fill: rgba(0,0,0,0.3)" filter="url(&quot;#rect-shadow-2000&quot;)"/><rect width="95.828125" height="48" style="fill: #fff; stroke-width:0;shape-rendering: crispEdges; stroke:#e5e5e5"/><g transform="translate(13.5,10.6953125)" class="content"><g style="fill:#00a4ff;" class="logo"/><text transform="translate(0 21)" style="isolation: isolate;font-size: 14px;fill: #444;font-family: PingFang-SC-Medium, PingFang SC, MicrosoftYaHei, Microsoft YaHei">SegmentN</text></g></g><g transform="translate(637.59375,513)" id="RectEndPoint41" type="shape" style="cursor: move;"><rect transform="translate(-3 -3)" x="3" y="4" width="95.03125" height="51" style="fill: rgba(0,0,0,0.3)" filter="url(&quot;#rect-shadow-2000&quot;)"/><rect width="95.03125" height="51" style="fill: #fff; stroke-width:0;shape-rendering: crispEdges; stroke:#e5e5e5"/><g transform="translate(14,12.1953125)" class="content"><g style="fill:#00a4ff;" class="logo"/><text transform="translate(0 21)" style="isolation: isolate;font-size: 14px;fill: #444;font-family: PingFang-SC-Medium, PingFang SC, MicrosoftYaHei, Microsoft YaHei">Segment3</text></g></g><g transform="translate(137.078125,295.5)" id="RectEndPoint42" type="shape" style="cursor: move;"><rect transform="translate(-3 -3)" x="3" y="4" width="93.34375" height="48" style="fill: rgba(0,0,0,0.3)" filter="url(&quot;#rect-shadow-2000&quot;)"/><rect width="93.34375" height="48" style="fill: #fff; stroke-width:0;shape-rendering: crispEdges; stroke:#e5e5e5"/><g transform="translate(14.5,10.6953125)" class="content"><g style="fill:#00a4ff;" class="logo"/><text transform="translate(0 21)" style="isolation: isolate;font-size: 14px;fill: #444;font-family: PingFang-SC-Medium, PingFang SC, MicrosoftYaHei, Microsoft YaHei">Segment1</text></g></g><g transform="translate(256.90625,295.5)" id="RectEndPoint43" type="shape" style="cursor: move;"><rect transform="translate(-3 -3)" x="3" y="4" width="107.03125" height="48" style="fill: rgba(0,0,0,0.3)" filter="url(&quot;#rect-shadow-2000&quot;)"/><rect width="107.03125" height="48" style="fill: #fff; stroke-width:0;shape-rendering: crispEdges; stroke:#e5e5e5"/><g transform="translate(20,10.6953125)" class="content"><g style="fill:#00a4ff;" class="logo"/><text transform="translate(0 21)" style="isolation: isolate;font-size: 14px;fill: #444;font-family: PingFang-SC-Medium, PingFang SC, MicrosoftYaHei, Microsoft YaHei">Segment2</text></g></g><g transform="translate(386.28125,294.5)" id="RectEndPoint44" type="shape" style="cursor: move;"><rect transform="translate(-3 -3)" x="3" y="4" width="107.03125" height="49" style="fill: rgba(0,0,0,0.3)" filter="url(&quot;#rect-shadow-2000&quot;)"/><rect width="107.03125" height="49" style="fill: #fff; stroke-width:0;shape-rendering: crispEdges; stroke:#e5e5e5"/><g transform="translate(20,11.1953125)" class="content"><g style="fill:#00a4ff;" class="logo"/><text transform="translate(0 21)" style="isolation: isolate;font-size: 14px;fill: #444;font-family: PingFang-SC-Medium, PingFang SC, MicrosoftYaHei, Microsoft YaHei">Segment3</text></g></g><g transform="translate(526.765625,295.5)" id="RectEndPoint45" type="shape" style="cursor: auto;"><rect transform="translate(-3 -3)" x="3" y="4" width="95.828125" height="48" style="fill: rgba(0,0,0,0.3)" filter="url(&quot;#rect-shadow-2000&quot;)"/><rect width="95.828125" height="48" style="fill: #fff; stroke-width:0;shape-rendering: crispEdges; stroke:#e5e5e5"/><g transform="translate(13.5,10.6953125)" class="content"><g style="fill:#00a4ff;" class="logo"/><text transform="translate(0 21)" style="isolation: isolate;font-size: 14px;fill: #444;font-family: PingFang-SC-Medium, PingFang SC, MicrosoftYaHei, Microsoft YaHei">SegmentN</text></g></g><g transform="translate(86.6484375,149)" id="RectEndPoint51" type="shape" style="cursor: move;"><rect transform="translate(-3 -3)" x="3" y="4" width="124.203125" height="50" style="fill: rgba(0,0,0,0.3)" filter="url(&quot;#rect-shadow-2000&quot;)"/><rect width="124.203125" height="50" style="fill: #fff; stroke-width:0;shape-rendering: crispEdges; stroke:#e5e5e5"/><g transform="translate(20 9)" class="content"><g style="fill:#00a4ff;" class="logo"/><text transform="translate(0 21)" style="isolation: isolate;font-size: 14px;fill: #444;font-family: PingFang-SC-Medium, PingFang SC, MicrosoftYaHei, Microsoft YaHei">Topic1-Part1</text></g></g><g transform="translate(319.3046875,149)" id="RectEndPoint53" type="shape" style="cursor: move;"><rect transform="translate(-3 -3)" x="3" y="4" width="126.890625" height="50" style="fill: rgba(0,0,0,0.3)" filter="url(&quot;#rect-shadow-2000&quot;)"/><rect width="126.890625" height="50" style="fill: #fff; stroke-width:0;shape-rendering: crispEdges; stroke:#e5e5e5"/><g transform="translate(20 9)" class="content"><g style="fill:#00a4ff;" class="logo"/><text transform="translate(0 21)" style="isolation: isolate;font-size: 14px;fill: #444;font-family: PingFang-SC-Medium, PingFang SC, MicrosoftYaHei, Microsoft YaHei">Topic1-Part2</text></g></g><g transform="translate(537.6484375,149)" id="RectEndPoint55" type="shape"><rect transform="translate(-3 -3)" x="3" y="4" width="126.890625" height="50" style="fill: rgba(0,0,0,0.3)" filter="url(&quot;#rect-shadow-2000&quot;)"/><rect width="126.890625" height="50" style="fill: #fff; stroke-width:0;shape-rendering: crispEdges; stroke:#e5e5e5"/><g transform="translate(20 9)" class="content"><g style="fill:#00a4ff;" class="logo"/><text transform="translate(0 21)" style="isolation: isolate;font-size: 14px;fill: #444;font-family: PingFang-SC-Medium, PingFang SC, MicrosoftYaHei, Microsoft YaHei">Topic1-Part3</text></g></g></g><g transform="translate(0,0)" id="textgroup"><g transform="translate(54.390625,357)" id="Textbasic68" type="shape" style="cursor: auto;"><rect overflow="visible" opacity="0.5" width="650.140625" height="20" fill="#CEE3FF" style="opacity:0"/><g transform="translate(0 0)" class="content"><text transform="translate(0 14)" fill="#878787" style="font-size: 12px;font-family: PingFang-SC-Medium, PingFang SC, MicrosoftYaHei, Microsoft YaHei">---------------------------                              --------------------------------------------------------------</text></g></g></g><g transform="translate(0,0)" id="assistantgroup"/></svg>