<svg xmlns="http://www.w3.org/2000/svg" height="330" width="950" viewBox="0 0 950 330" id="svgwrapper_svg" oncontextmenu="return false;" preserveAspectRatio="xMinYMin meet"><style>        g#assistantgroup rect.outer {fill: none;stroke: #1abc9c;stroke-dasharray: 2,4;stroke-width: 1px;}        rect.selection {stroke: gray;stroke-dasharray: 4px;stroke-opacity: 0.5; fill: transparent;}        svg *::selection {background : transparent;}</style><defs g_shapeid="95" id="svg_defs"><marker id="end-arrow" viewBox="0 -5 10 10" refX="6" markerWidth="10" markerHeight="10" orient="auto"><path d="M5,5L10 0 5 -5z" fill="#999999"/></marker><filter width="2000" height="2000" x="0" y="0" id="rect-shadow-2000" filterUnits="userSpaceOnUse"><feGaussianBlur stdDeviation="2"/></filter><marker id="start-arrow" viewBox="0 -5 10 10" refX="4" markerWidth="10" markerHeight="10" orient="auto"><path d="M5,5L10 0 5 -5z" fill="#000"/></marker></defs><path d="M 350.5 325 L 359 352" style="fill: none; stroke: rgb(153, 153, 153); stroke-width: 1px; display: none;"/><g transform="translate(0,0)" id="bottomgroup"><g transform="translate(651,108)" id="GrayRectGroup76" type="shape" style="cursor: move;"><rect overflow="visible" width="92" height="52" fill="#eaebec"/><g transform="translate(10 10)" class="content"><text transform="translate(0 14)" style="font-size: 14px;fill: #444;font-family: PingFang-SC-Medium, PingFang SC, MicrosoftYaHei, Microsoft YaHei">Broker2</text></g></g><g transform="translate(527,108)" id="GrayRectGroup82" type="shape" style="cursor: move;"><rect overflow="visible" width="92" height="52" fill="#eaebec"/><g transform="translate(10 10)" class="content"><text transform="translate(0 14)" style="font-size: 14px;fill: #444;font-family: PingFang-SC-Medium, PingFang SC, MicrosoftYaHei, Microsoft YaHei">Broker1</text></g></g><g transform="translate(767,108)" id="GrayRectGroup83" type="shape" style="cursor: move;"><rect overflow="visible" width="92" height="52" fill="#eaebec"/><g transform="translate(10 10)" class="content"><text transform="translate(0 14)" style="font-size: 14px;fill: #444;font-family: PingFang-SC-Medium, PingFang SC, MicrosoftYaHei, Microsoft YaHei">Broker3</text></g></g><g transform="translate(455,74)" id="DashRectGroup84" type="shape" style="cursor: move;"><rect x="0" y="0" width="484" height="107" style="opacity: 0;"/><path d="M0 0 H 484 V 107 H 0 V 0 " fill="none" stroke="#bababa" stroke-width="1" stroke-dasharray="5" stroke-dashoffset="0"/><g transform="translate(10 10)" class="content"><text transform="translate(0 14)" style="isolation: isolate;font-size: 14px;fill: #444;font-family: PingFang-SC-Medium, PingFang SC, MicrosoftYaHei, Microsoft YaHei">计算</text></g></g><g transform="translate(452,206.5)" id="DashRectGroup85" type="shape" style="cursor: move;"><rect x="0" y="0" width="487" height="108" style="opacity: 0;"/><path d="M0 0 H487 V 108 H 0 V 0" fill="none" stroke="#bababa" stroke-width="1" stroke-dasharray="5" stroke-dashoffset="0"/><g transform="translate(10 10)" class="content"><text transform="translate(0 14)" style="isolation: isolate;font-size: 14px;fill: #444;font-family: PingFang-SC-Medium, PingFang SC, MicrosoftYaHei, Microsoft YaHei">存储</text></g></g><g transform="translate(14.5,109)" id="GrayRectGroup81" type="shape" style="cursor: move;"><rect overflow="visible" width="109" height="153" fill="#eaebec"/><g transform="translate(10 10)" class="content"><text transform="translate(0 14)" style="font-size: 14px;fill: #444;font-family: PingFang-SC-Medium, PingFang SC, MicrosoftYaHei, Microsoft YaHei">Broker1</text></g></g><g transform="translate(276.5,111)" id="GrayRectGroup89" type="shape" style="cursor: move;"><rect overflow="visible" width="109" height="153" fill="#eaebec"/><g transform="translate(10 10)" class="content"><text transform="translate(0 14)" style="font-size: 14px;fill: #444;font-family: PingFang-SC-Medium, PingFang SC, MicrosoftYaHei, Microsoft YaHei">Broker3</text></g></g><g transform="translate(144.5,111)" id="GrayRectGroup88" type="shape" style="cursor: move;"><rect overflow="visible" width="109" height="153" fill="#eaebec"/><g transform="translate(10 10)" class="content"><text transform="translate(0 14)" style="font-size: 14px;fill: #444;font-family: PingFang-SC-Medium, PingFang SC, MicrosoftYaHei, Microsoft YaHei">Broker2</text></g></g></g><g transform="translate(0,0)" id="middlegroup"><g transform="translate(0,0)" id="Link78" type="link" startshape="GrayRectGroup76" startedge="SM" endshape="RectEndPoint62" endedge="NM"><path d="M 696.5 159.5 L 696.5 197.5 L 748.5 197.5 L 748.5 235.5" style="stroke: #888888;stroke-width: 1px;fill:none;"/><g transform="translate(0, 0.5)"><polygon points="744 230.5 748.5 236.5 753 230.5 744 230.5" style="fill:#888888;fill-rule: evenodd" class="endarrow"/></g><path d="M 696.5 159.5 L 696.5 197.5" style="stroke-width: 15px;stroke:red;fill:none;stroke-opacity:0" class="outer" index="0"/><path d="M 696.5 197.5 L 748.5 197.5" style="stroke-width: 15px;stroke:red;fill:none;stroke-opacity:0" class="outer" index="1"/><path d="M 748.5 197.5 L 748.5 235.5" style="stroke-width: 15px;stroke:red;fill:none;stroke-opacity:0" class="outer" index="2"/></g><g transform="translate(0,0)" id="Link79" type="link" startshape="GrayRectGroup76" startedge="SM" endshape="RectEndPoint65" endedge="NM"><path d="M 696.5 159.5 L 696.5 197.5 L 870.5 197.5 L 870.5 235.5" style="stroke: #888888;stroke-width: 1px;fill:none;"/><g transform="translate(0, 0.5)"><polygon points="866 230.5 870.5 236.5 875 230.5 866 230.5" style="fill:#888888;fill-rule: evenodd" class="endarrow"/></g><path d="M 696.5 159.5 L 696.5 197.5" style="stroke-width: 15px;stroke:red;fill:none;stroke-opacity:0" class="outer" index="0"/><path d="M 696.5 197.5 L 870.5 197.5" style="stroke-width: 15px;stroke:red;fill:none;stroke-opacity:0" class="outer" index="1"/><path d="M 870.5 197.5 L 870.5 235.5" style="stroke-width: 15px;stroke:red;fill:none;stroke-opacity:0" class="outer" index="2"/></g><g transform="translate(0,0)" id="Link80" type="link" startshape="GrayRectGroup76" startedge="SM" endshape="RectEndPoint4" endedge="NM"><path d="M 696.5 159.5 L 696.5 197.5 L 512.5 197.5 L 512.5 234.5" style="stroke: #888888;stroke-width: 1px;fill:none;"/><g transform="translate(0, 0.5)"><polygon points="508 229.5 512.5 235.5 517 229.5 508 229.5" style="fill:#888888;fill-rule: evenodd" class="endarrow"/></g><path d="M 696.5 159.5 L 696.5 197.5" style="stroke-width: 15px;stroke:red;fill:none;stroke-opacity:0" class="outer" index="0"/><path d="M 696.5 197.5 L 512.5 197.5" style="stroke-width: 15px;stroke:red;fill:none;stroke-opacity:0" class="outer" index="1"/><path d="M 512.5 197.5 L 512.5 234.5" style="stroke-width: 15px;stroke:red;fill:none;stroke-opacity:0" class="outer" index="2"/></g><g transform="translate(0,0)" id="Link77" type="link" startshape="GrayRectGroup76" startedge="SM" endshape="RectEndPoint64" endedge="NM"><path d="M 696.5 159.5 L 696.5 197.5 L 630.5 197.5 L 630.5 235.5" style="stroke: #888888;stroke-width: 1px;fill:none;"/><g transform="translate(0, 0.5)"><polygon points="626 230.5 630.5 236.5 635 230.5 626 230.5" style="fill:#888888;fill-rule: evenodd" class="endarrow"/></g><path d="M 696.5 159.5 L 696.5 197.5" style="stroke-width: 15px;stroke:red;fill:none;stroke-opacity:0" class="outer" index="0"/><path d="M 696.5 197.5 L 630.5 197.5" style="stroke-width: 15px;stroke:red;fill:none;stroke-opacity:0" class="outer" index="1"/><path d="M 630.5 197.5 L 630.5 235.5" style="stroke-width: 15px;stroke:red;fill:none;stroke-opacity:0" class="outer" index="2"/></g></g><g transform="translate(0,0)" id="maingroup"><g transform="translate(460.640625,240)" id="RectEndPoint4" type="shape" style="cursor: move;"><rect transform="translate(-3 -3)" x="3" y="4" width="104.34375" height="50" style="fill: rgba(0,0,0,0.3)" filter="url(&quot;#rect-shadow-2000&quot;)"/><rect width="104.34375" height="50" style="fill: #fff; stroke-width:0;shape-rendering: crispEdges; stroke:#e5e5e5"/><g transform="translate(20 9)" class="content"><g style="fill:#00a4ff;" class="logo"/><text transform="translate(0 21)" style="isolation: isolate;font-size: 14px;fill: #444;font-family: PingFang-SC-Medium, PingFang SC, MicrosoftYaHei, Microsoft YaHei">Segment1</text></g></g><g transform="translate(699.96875,240)" id="RectEndPoint62" type="shape" style="cursor: move;"><rect transform="translate(-3 -3)" x="3" y="4" width="107.03125" height="50" style="fill: rgba(0,0,0,0.3)" filter="url(&quot;#rect-shadow-2000&quot;)"/><rect width="107.03125" height="50" style="fill: #fff; stroke-width:0;shape-rendering: crispEdges; stroke:#e5e5e5"/><g transform="translate(20 9)" class="content"><g style="fill:#00a4ff;" class="logo"/><text transform="translate(0 21)" style="isolation: isolate;font-size: 14px;fill: #444;font-family: PingFang-SC-Medium, PingFang SC, MicrosoftYaHei, Microsoft YaHei">Segment3</text></g></g><g transform="translate(577.1796875,240)" id="RectEndPoint64" type="shape" style="cursor: auto;"><rect transform="translate(-3 -3)" x="3" y="4" width="107.03125" height="50" style="fill: rgba(0,0,0,0.3)" filter="url(&quot;#rect-shadow-2000&quot;)"/><rect width="107.03125" height="50" style="fill: #fff; stroke-width:0;shape-rendering: crispEdges; stroke:#e5e5e5"/><g transform="translate(20 9)" class="content"><g style="fill:#00a4ff;" class="logo"/><text transform="translate(0 21)" style="isolation: isolate;font-size: 14px;fill: #444;font-family: PingFang-SC-Medium, PingFang SC, MicrosoftYaHei, Microsoft YaHei">Segment2</text></g></g><g transform="translate(817.1171875,240)" id="RectEndPoint65" type="shape" style="cursor: move;"><rect transform="translate(-3 -3)" x="3" y="4" width="108.828125" height="50" style="fill: rgba(0,0,0,0.3)" filter="url(&quot;#rect-shadow-2000&quot;)"/><rect width="108.828125" height="50" style="fill: #fff; stroke-width:0;shape-rendering: crispEdges; stroke:#e5e5e5"/><g transform="translate(20 9)" class="content"><g style="fill:#00a4ff;" class="logo"/><text transform="translate(0 21)" style="isolation: isolate;font-size: 14px;fill: #444;font-family: PingFang-SC-Medium, PingFang SC, MicrosoftYaHei, Microsoft YaHei">SegmentN</text></g></g><g transform="translate(30,159)" id="RectEndPoint86" type="shape" style="cursor: move;"><rect transform="translate(-3 -3)" x="3" y="4" width="78" height="73" style="fill: rgba(0,0,0,0.3)" filter="url(&quot;#rect-shadow-2000&quot;)"/><rect width="78" height="73" style="fill: #fff; stroke-width:0;shape-rendering: crispEdges; stroke:#e5e5e5"/><g transform="translate(20 9)" class="content"><g style="fill:#00a4ff;" class="logo"/><text transform="translate(0 21)" style="isolation: isolate;font-size: 14px;fill: #444;font-family: PingFang-SC-Medium, PingFang SC, MicrosoftYaHei, Microsoft YaHei">分区</text></g></g><g transform="translate(160,159)" id="RectEndPoint90" type="shape" style="cursor: move;"><rect transform="translate(-3 -3)" x="3" y="4" width="78" height="73" style="fill: rgba(0,0,0,0.3)" filter="url(&quot;#rect-shadow-2000&quot;)"/><rect width="78" height="73" style="fill: #fff; stroke-width:0;shape-rendering: crispEdges; stroke:#e5e5e5"/><g transform="translate(20 9)" class="content"><g style="fill:#00a4ff;" class="logo"/><text transform="translate(0 21)" style="isolation: isolate;font-size: 14px;fill: #444;font-family: PingFang-SC-Medium, PingFang SC, MicrosoftYaHei, Microsoft YaHei">分区</text></g></g><g transform="translate(296,159)" id="RectEndPoint91" type="shape" style="cursor: move;"><rect transform="translate(-3 -3)" x="3" y="4" width="78" height="73" style="fill: rgba(0,0,0,0.3)" filter="url(&quot;#rect-shadow-2000&quot;)"/><rect width="78" height="73" style="fill: #fff; stroke-width:0;shape-rendering: crispEdges; stroke:#e5e5e5"/><g transform="translate(20 9)" class="content"><g style="fill:#00a4ff;" class="logo"/><text transform="translate(0 21)" style="isolation: isolate;font-size: 14px;fill: #444;font-family: PingFang-SC-Medium, PingFang SC, MicrosoftYaHei, Microsoft YaHei">分区</text></g></g></g><g transform="translate(0,0)" id="textgroup"><g transform="translate(37.5,202)" id="Textbasic87" type="shape" style="cursor: move;"><rect overflow="visible" opacity="0.5" width="80" height="20" fill="#CEE3FF" style="opacity:0"/><g transform="translate(0 0)" class="content"><text transform="translate(0 14)" fill="#878787" style="font-size: 12px;font-family: PingFang-SC-Medium, PingFang SC, MicrosoftYaHei, Microsoft YaHei">（主副本）</text></g></g><g transform="translate(173.5,202)" id="Textbasic92" type="shape" style="cursor: move;"><rect overflow="visible" opacity="0.5" width="80" height="20" fill="#CEE3FF" style="opacity:0"/><g transform="translate(0 0)" class="content"><text transform="translate(0 14)" fill="#878787" style="font-size: 12px;font-family: PingFang-SC-Medium, PingFang SC, MicrosoftYaHei, Microsoft YaHei">（拷贝）</text></g></g><g transform="translate(301.5,202)" id="Textbasic93" type="shape" style="cursor: move;"><rect overflow="visible" opacity="0.5" width="80" height="20" fill="#CEE3FF" style="opacity:0"/><g transform="translate(0 0)" class="content"><text transform="translate(0 14)" fill="#878787" style="font-size: 12px;font-family: PingFang-SC-Medium, PingFang SC, MicrosoftYaHei, Microsoft YaHei">（从拷贝）</text></g></g><g transform="translate(14.5,23)" id="Textbasic94" type="shape" style="cursor: move;"><rect overflow="visible" opacity="0.5" width="80" height="20" fill="#CEE3FF" style="opacity:0"/><g transform="translate(0 0)" class="content"><text transform="translate(0 14)" fill="#444" style="font-size: 14px;font-family: PingFang-SC-Medium, PingFang SC, MicrosoftYaHei, Microsoft YaHei">物理分区</text></g></g><g transform="translate(452,22)" id="Textbasic95" type="shape" style="cursor: move;"><rect overflow="visible" opacity="0.5" width="80" height="20" fill="#CEE3FF" style="opacity:0"/><g transform="translate(0 0)" class="content"><text transform="translate(0 14)" fill="#444" style="font-size: 14px;font-family: PingFang-SC-Medium, PingFang SC, MicrosoftYaHei, Microsoft YaHei">逻辑分区</text></g></g></g><g transform="translate(0,0)" id="assistantgroup"/></svg>